<?xml version="1.0" encoding="UTF-8" standalone="no"?>
<!-- Created by L3D for Freifunk Bodense (https://ffbsee.de/) -->
<!-- Lizenz: CC-BY-SA "Lilian Roller - Freifunk Bodensee-->

<svg
   xmlns:dc="http://purl.org/dc/elements/1.1/"
   xmlns:cc="http://creativecommons.org/ns#"
   xmlns:rdf="http://www.w3.org/1999/02/22-rdf-syntax-ns#"
   xmlns:svg="http://www.w3.org/2000/svg"
   xmlns="http://www.w3.org/2000/svg"
   xmlns:xlink="http://www.w3.org/1999/xlink"
   xmlns:sodipodi="http://sodipodi.sourceforge.net/DTD/sodipodi-0.dtd"
   xmlns:inkscape="http://www.inkscape.org/namespaces/inkscape"
   width="1200mm"
   height="300mm"
   viewBox="0 0 429.26829 107.14704"
   id="ffbsee_footer"
   version="1.1"
   sodipodi:docname="footer.ffbsee.animated.svg"
   inkscape:version="0.91 r13725">
  <path
     style="fill:#bebebe;fill-opacity:1;fill-rule:evenodd;stroke:none;stroke-width:0.11675666;stroke-linecap:butt;stroke-linejoin:miter;stroke-miterlimit:4;stroke-dasharray:none;stroke-opacity:1"
     d="m 255.84341,64.422817 c 0,0 -25.71123,-23.58171 -31.04857,-27.302111 -5.33733,-3.72043 -14.47823,-7.44084 -19.20425,-11.79081 -4.726,-4.350029 -5.34888,-5.55201 -6.80319,-5.55201 -1.45429,0 -2.34458,0.744091 -2.50839,1.37368 -0.16381,0.629621 -1.96532,-1.201979 -1.96532,-1.201979 0,0 -1.33773,0.744079 -2.17605,0.85856 -0.8383,0.114439 -2.46656,-0.85856 -3.36007,-0.629621 -0.89352,0.228971 -2.56649,1.0303 -2.56649,1.0303 0,0 -0.22916,-0.858579 -1.79317,-0.51516 -1.56403,0.34341 -8.1506,2.518441 -9.0939,3.720421 -0.94332,1.201969 -6.23615,4.521659 -8.97084,5.49483 -12.05735,4.777369 -41.73086,16.704289 -47.23216,24.455399 -4.98246,8.1849 27.82763,20.59 27.82763,20.59 l 113.69021,4.808101 -4.56734,-14.6527 z"
     id="bg6"
     inkscape:connector-curvature="0"
     sodipodi:nodetypes="csssccccccccccccc" />
  <path
     inkscape:connector-curvature="0"
     id="bg02"
     d="m 89.62886,41.516881 c 0,0 -18.48981,-15.05299 -29.21712,-21.774869 -5.652599,-3.542 -14.77345,-7.612111 -19.59583,-12.0622202 -4.82235,-4.45016 -5.45794,-5.67979 -6.94191,-5.67979 -1.48396,0 -2.39238,0.76122 -2.55953,1.40529 -0.16717,0.6441199 -2.00539,-1.22964 -2.00539,-1.22964 0,0 -1.36502,0.76121 -2.22042,0.8783299 -0.8554,0.11701 -2.51686,-0.8783299 -3.42859,-0.6441099 -0.91173,0.23422 -2.618819,1.054 -2.618819,1.054 0,0 -0.233841,-0.87835 -1.829731,-0.52701 -1.59592,0.3513099 -8.3168,2.5764 -9.2793302,3.80606 -0.96256,1.2296399 -6.36331,4.6257402 -9.15374997,5.6213002 -2.79041003,0.99539 -6.21532003,0.936829 -9.50984003,3.45472 -3.2945098,2.51774 7.94201003,9.43769 2.85798,17.810819 -5.0840398,8.3733 -13.1483398,24.81675 -13.1483398,24.81675 l 139.2455,8.158501 -3.95632,-18.229801 z"
     style="fill:#bebebe;fill-opacity:1;fill-rule:evenodd;stroke:none;stroke-width:0.11675666;stroke-linecap:butt;stroke-linejoin:miter;stroke-miterlimit:4;stroke-dasharray:none;stroke-opacity:1"
     sodipodi:nodetypes="cssscccccccccscccc" />
  <path
     sodipodi:nodetypes="cssc"
     inkscape:connector-curvature="0"
     id="bg0"
     d="m 211.31163,65.958531 c 0,0 -24.94782,-18.008899 -25.44793,-18.396 -0.50011,-0.386969 -1.6655,-1.05055 -2.69533,-2.12861 -1.02983,-1.07815 -0.98116,-2.101009 -1.98067,-2.764509 -0.99951,-0.663521 -2.65982,-0.91232 -3.54678,-1.271661 -0.88697,-0.359399 -2.63666,-1.60343 -4.04941,-2.04575 -1.41275,-0.442299 -2.82265,-0.442299 -3.76365,-0.608199 -0.94101,-0.1659 -2.80108,-1.382251 -3.84964,-1.07814 -1.04855,0.3041 -2.36978,1.18874 -2.58969,1.38224 -11.45247,-1.582811 -16.27797,-15.963291 -24.8368,-8.28002 -0.0979,-0.0195 -0.62743,-0.293221 -0.62743,-0.293221 0,0 -3.26022,0.664671 -4.37585,0.449601 -1.11562,-0.215021 -2.87443,-0.13683 -3.53402,0.645089 -0.65958,0.781961 -3.70915,3.79231 -4.62487,4.261441 -0.91573,0.46922 -23.27688,18.846039 -27.5399,20.77394 -1.32785,0.600599 -23.5151,-15.7286 -31.78873,-15.94032 -7.03309,-0.17998 -19.60343,14.278019 -26.46761,13.767519 -3.10829,-0.2311 -18.52446,-27.12126 -35.4694302,-23.01406 -12.1859,2.95367 -14.5449998,7.690551 -16.4157898,8.58971 -1.8708,0.89917 7.9593398,23.00515 10.6820598,23.553251 23.7524512,4.7819 89.8414202,6.238299 89.8414202,6.238299 l -6.81243,0.01001 106.50343,1.1728 z"
     style="fill:#8e8e8e;fill-opacity:1;fill-rule:evenodd;stroke:none;stroke-width:0.1;stroke-linecap:butt;stroke-linejoin:miter;stroke-miterlimit:4;stroke-dasharray:none;stroke-opacity:1" />
  <path
     style="fill:#bebebe;fill-opacity:1;fill-rule:evenodd;stroke:none;stroke-width:0.1;stroke-linecap:butt;stroke-linejoin:miter;stroke-miterlimit:4;stroke-dasharray:none;stroke-opacity:1"
     d="m 449.72067,93.326796 1.68965,-50.209499 c -6.4728,-4.119721 -2.38648,-8.55549 -24.29391,-4.1651 -5.14729,0.666679 -11.63739,-9.40993 -15.70397,-10.14384 -3.57438,0.790689 -11.29129,3.583819 -14.66469,3.49972 -4.72419,0.0444 -9.28722,-3.970051 -9.28722,-3.970051 l 0.2704,0.37674 c 0,0 -2.22015,-0.86764 -2.8387,-1.26722 -0.61855,-0.39958 -1.07401,-0.856259 -1.32053,-0.93615 -0.24641,-0.0799 -1.11007,-0.43383 -1.11007,-0.43383 0,0 -0.44757,0.228321 -0.62935,0.43383 -0.18165,0.20549 -0.33859,0.799161 -0.33859,0.799161 0,0 -0.5935,0 -1.02574,-0.216931 -0.43225,-0.21691 -1.09355,-0.77632 -1.09355,-0.77632 0,0 -0.87733,0.228341 -1.24316,0.44524 -0.36586,0.21691 -0.38511,0.31968 -0.38511,0.31968 l -0.14578,-0.20551 c 0,0 -1.75618,0.319671 -2.08095,0.548001 -0.32481,0.228319 -2.06962,1.529799 -2.94799,1.6668 -0.87832,0.13699 -1.47509,-0.14844 -1.47509,-0.14844 0,0 -45.38946,29.32542 -46.03798,29.873319 12.75895,-12.690869 -39.73469,-44.754299 -54.94372,-39.325309 -78.22681,65.383009 23.61493,38.574309 23.61493,38.574309 l -4.69557,36.9127 z"
     id="path3401-9"
     inkscape:connector-curvature="0"
     sodipodi:nodetypes="cccccccsccccccccccscccccc" />
  <path
     style="fill:#8e8e8e;fill-opacity:1;fill-rule:evenodd;stroke:none;stroke-width:0.1;stroke-linecap:butt;stroke-linejoin:miter;stroke-miterlimit:4;stroke-dasharray:none;stroke-opacity:1"
     d="m 366.1385,48.891472 c -1.08408,-1.07817 -32.80074,-8.88677 -37.72304,-13.7799 -7.64644,-2.79369 -4.678,8.700699 -22.67284,4.75459 -17.44873,6.62693 -15.28836,7.74653 -37.03643,-2.52171 -0.96397,0.469209 -2.87463,0.91882 -4.2698,1.524809 -1.39515,0.60592 -3.43417,-6.02078 -7.71141,-5.590769 -4.27724,0.430099 -11.57627,3.362229 -14.78187,4.02693 -3.20559,0.664619 -12.08568,6.372649 -12.73805,7.271799 -0.65237,0.89923 -4.29338,6.450891 -6.26272,7.350191 -1.96935,0.898999 -11.94377,6.3335 -14.73675,7.1545 -2.79298,0.8209 -15.39868,1.172799 -15.39868,1.172799 l -1.11822,11.064201 142.84445,1.172599 c 60.21858,-3.0217 80.46253,-15.482099 31.60536,-23.600039 z"
     id="bg9"
     inkscape:connector-curvature="0"
     sodipodi:nodetypes="ccccsssssscccc" />
  <path
     style="fill:#525252;fill-opacity:1;fill-rule:evenodd;stroke:none;stroke-width:0.1;stroke-linecap:butt;stroke-linejoin:miter;stroke-miterlimit:4;stroke-dasharray:none;stroke-opacity:1"
     d="m 267.22763,62.102922 c 0,0 -41.58385,-3.847225 -51.48379,-7.90628 -8.4166,-3.450865 -10.2155,-9.050702 -13.40051,-8.502503 -3.18501,0.548098 -5.34918,2.975448 -7.20411,2.613762 -1.85493,-0.361786 -3.68605,-1.976408 -5.69047,-1.276143 -2.00444,0.700167 -5.72284,1.581008 -7.64401,0.595743 -1.92117,-0.985263 -3.22225,-3.910513 -5.8569,-3.304537 -2.63464,0.606075 -5.33726,2.34924 -9.13546,2.29419 -3.79821,-0.05525 -5.69729,-1.432568 -8.59014,-0.464912 -2.89286,0.967786 -4.13121,2.187291 -5.59883,1.732926 -1.46764,-0.454263 -0.43822,-1.979044 -3.74218,0.333946 -3.30395,2.313201 -15.36961,8.476547 -15.36961,8.476547 l -9.70837,5.985398 9.76236,3.201316 64.53898,1.134004 38.6784,5.767922 z"
     id="path5673-1"
     inkscape:connector-curvature="0"
     sodipodi:nodetypes="csssssssssscccccc" />
  <path
     sodipodi:nodetypes="cssscccc"
     style="fill:#525252;fill-opacity:1;fill-rule:evenodd;stroke:none;stroke-width:0.07615175;stroke-linecap:butt;stroke-linejoin:miter;stroke-miterlimit:4;stroke-dasharray:none;stroke-opacity:1"
     d="m 129.42481,60.012052 c 0,0 -15.95991,-5.9137 -22.12237,-7.4059 -6.1625,-1.4923 -37.633385,8.9076 -42.624345,9.9023 -4.990949,0.994901 -37.03996,-5.1245 -42.44715,-4.793 -5.40719,0.3318 -39.210971,-12.67907 -39.210971,-12.67907 l 2.46769,30.94967 c 0,0 156.058836,8.5645 156.056716,8.3433 -0.003,-0.221 -12.11957,-24.3173 -12.11957,-24.3173 z"
     id="bg79-1"
     inkscape:connector-curvature="0" />
  <path
     style="fill:#525252;fill-opacity:1;fill-rule:evenodd;stroke:none;stroke-width:0.1;stroke-linecap:butt;stroke-linejoin:miter;stroke-miterlimit:4;stroke-dasharray:none;stroke-opacity:1"
     d="m 378.69694,49.52916 c -1.73944,-0.4423 -3.47531,-0.4423 -4.63392,-0.6082 -1.15858,-0.1659 -3.44875,-1.3823 -4.73976,-1.0782 -1.29098,0.3042 -2.91773,1.1888 -3.1885,1.3823 -0.27077,0.1935 -2.33072,-0.07 -3.4669,-0.6954 -1.13615,-0.6256 -2.97654,-2.033 -4.2554,-2.4435 -1.27886,-0.4105 -4.20198,-1.7788 -6.51733,-2.3848 -2.31536,-0.606 -5.71345,-1.173 -5.71345,-1.173 0,0 -0.46041,-0.3908 -0.77469,-0.5668 -0.31428,-0.1759 -5.13285,-0.8015 -5.83129,-0.8602 -0.69845,-0.058 -3.90011,-0.1367 -4.0206,-0.1563 -0.12048,-0.02 -0.77251,-0.2932 -0.77251,-0.2932 0,0 -4.01405,0.6646 -5.38765,0.4495 -1.37358,-0.215 -3.53907,-0.1367 -4.35117,0.6452 -0.81209,0.7818 -4.5668,3.7922 -5.69426,4.2614 -1.12745,0.4692 -3.3622,0.9188 -4.994,1.5248 -1.6318,0.606 -4.01667,3.3622 -9.01937,3.792299 -5.00272,0.430101 -17.92959,-2.893199 -21.67891,-2.228599 -3.74932,0.6647 -9.74578,3.245099 -10.50881,4.144199 -0.763,0.899301 -5.02159,6.450901 -7.32496,7.3502 -2.30338,0.8991 -13.96959,6.333401 -17.2363,7.1545 -3.26671,0.821 -18.01055,1.172901 -18.01055,1.172901 l -1.30788,11.064199 197.52727,2.1445 C 417.61923,41.09006 401.73754,38.69473 378.69694,49.52916 Z"
     id="bg03-5"
     inkscape:connector-curvature="0"
     sodipodi:nodetypes="csscssscscccssssssssscccc" />
  <path
     style="fill:#000000;fill-rule:evenodd;stroke:#000000;stroke-width:0.10095755px;stroke-linecap:butt;stroke-linejoin:miter;stroke-opacity:1"
     d="m 238.55054,68.388505 c 15.94425,-12.264809 42.16028,-13.6446 55.65157,-8.738676 13.49129,4.905923 32.04182,1.99303 32.04182,1.99303 0,0 38.02091,-18.397213 42.92683,-17.783973 4.90592,0.61324 19.01045,5.519165 24.52961,6.132405 5.51917,0.61324 12.87806,-7.972126 20.23694,-11.038329 7.35889,-3.066202 33.72822,-4.905923 33.72822,-4.905923 l 6.13241,42.313592 -149.01743,24.529629 -70.52265,-17.170744 z"
     id="bg39"
     inkscape:connector-curvature="0"
     sodipodi:nodetypes="cscsssccccc" />
  <path
     style="fill:#009ee0;fill-opacity:1;fill-rule:evenodd;stroke:none;stroke-width:0.10095755px;stroke-linecap:butt;stroke-linejoin:miter;stroke-opacity:1"
     d="m -10.149654,64.888129 c 50.347352,8.064584 131.102644,3.450028 154.506884,-2.623558 25.48171,-6.612704 111.07676,-2.266773 111.07676,-2.266773 -21.61807,9.840455 -17.53986,12.893606 -16.34123,13.580905 12.50415,7.169907 48.75262,8.585384 65.92335,4.905934 17.17074,-3.67944 111.30314,-17.170736 135.21952,-11.651576 23.91638,5.51916 -11.65157,50.898919 -11.65157,50.898919 l -440.306659,3.67945 z"
     id="bg135"
     inkscape:connector-curvature="0"
     sodipodi:nodetypes="csssssccc" />
  <g
     transform="matrix(1.3119405,0,0,1.1550545,60.421631,-561.41822)"
     id="boot02">
    <path
       inkscape:connector-curvature="0"
       id="path4160"
       d="m 136.14114,531.34183 c 0,0 -1.21027,8.41428 -1.2679,9.65336 -0.0576,1.23909 -0.17289,2.24766 -0.17289,2.24766 l 3.37147,-0.48988 c 0,0 -1.38317,-1.38316 -1.84423,-3.68845 -0.46105,-2.30528 -0.0865,-7.72269 -0.0865,-7.72269 z"
       style="fill:#ffffff;fill-rule:evenodd;stroke:#000000;stroke-width:0.051;stroke-linecap:butt;stroke-linejoin:miter;stroke-miterlimit:4;stroke-dasharray:none;stroke-opacity:1" />
    <animateMotion
       repeatCount="indefinite"
       values="0,0; -150,12; -300,13"
       dur="210s" />
    <path
       inkscape:connector-curvature="0"
       id="path4162"
       d="m 138.16374,543.06076 -2.08644,-12.48933 c 0,0 1.23424,4.6137 2.05707,6.22997 0.82281,1.61626 2.76233,5.34838 2.76233,5.34838 l -2.87988,0.0882"
       style="fill:#ffffff;fill-rule:evenodd;stroke:#000000;stroke-width:0.1329888;stroke-linecap:butt;stroke-linejoin:miter;stroke-miterlimit:4;stroke-dasharray:none;stroke-opacity:1" />
    <path
       inkscape:connector-curvature="0"
       id="path4164"
       d="m 143.55903,543.30778 -0.0865,0.48987 -4.63937,0.40342 -3.25622,-0.14408 -0.80684,-0.74921 5.61912,-0.66277 0.66276,0.34579 2.04594,-0.20172 z"
       style="fill:#000000;fill-rule:evenodd;stroke:#000000;stroke-width:0;stroke-linecap:butt;stroke-linejoin:miter;stroke-miterlimit:4;stroke-dasharray:none;stroke-opacity:1" />
  </g>
  <g
     id="zeppelin"
     transform="matrix(0.80478876,0,0,0.80478876,71.06256,-323.4625)">
    <path
       sodipodi:nodetypes="ccssscscsscsccsscsssscscssccssccc"
       inkscape:connector-curvature="0"
       id="zeppelin25"
       d="m 27.637188,430.0165 c 2.277072,-0.78274 9.07271,-1.99243 11.136307,-1.8857 2.063597,0.10668 8.716918,0.53369 10.638198,0.81833 1.921279,0.28463 13.306641,2.63286 16.010665,3.52234 2.704023,0.88948 12.203685,4.16278 14.83655,5.76384 2.632865,1.60107 4.554145,2.73961 4.554145,2.73961 0,0 1.529908,-3.77141 2.063596,-3.98488 0.533689,-0.21348 4.056036,0.71158 4.056036,0.71158 0,0 2.099176,0.1779 2.419389,0.92506 0.320213,0.74717 0.604847,7.96976 0.49811,8.28997 -0.106738,0.32021 -0.177897,0.64043 -0.177897,0.64043 0,0 2.41939,2.45497 2.88192,3.09539 0.462531,0.64043 1.138536,1.85012 1.138536,1.85012 0,0 4.838777,0.0355 5.372467,0.0712 0.53369,0.0355 5.55037,1.06738 5.47921,1.28086 -0.0712,0.21347 -8.894818,1.20969 -9.072714,1.13853 -0.177896,-0.0712 -0.391372,-0.49811 -0.711585,-0.46253 -0.320213,0.0355 0.320213,1.13854 0.03558,2.31265 -0.284634,1.17412 -1.209694,2.27708 -2.241493,3.02424 -1.031798,0.74716 -3.34445,1.77896 -3.842559,1.99244 -0.49811,0.21347 -0.853903,0.28463 -0.818323,0.53369 0.03558,0.24905 0.96064,-0.42695 1.280853,-0.46253 0.320213,-0.0355 0.676006,0.39137 0.711585,0.88948 0.03558,0.49811 -0.106738,6.61774 -0.106738,6.61774 0,0 -5.585943,0.88948 -5.834998,0.81832 -0.249055,-0.0712 -0.569268,-0.17789 -0.853902,-0.53369 -0.284634,-0.35579 -2.454969,-5.55036 -2.454969,-5.55036 0,0 -6.937955,1.24527 -8.467863,1.35201 -1.529908,0.10668 -11.45652,0.64043 -12.950849,0.49811 -1.494329,-0.14232 -15.79719,-2.31265 -18.679109,-3.23771 -2.88192,-0.92506 -12.91527,-4.6253 -16.651092,-7.11585 -5.640982,-4.38192 -12.256821,-8.31019 -11.912946,-17.02445 2.012383,-4.90243 7.288956,-7.08848 11.663891,-8.6282 z"
       style="fill:#efefef;fill-opacity:1;fill-rule:evenodd;stroke:#000000;stroke-width:0.542;stroke-linecap:butt;stroke-linejoin:miter;stroke-miterlimit:4;stroke-dasharray:none;stroke-opacity:1" />
    <animateMotion
       dur="180s"
       values="350,-10; 50,10; -2,10;-200,-25"
       repeatCount="indefinite" />
    <path
       inkscape:connector-curvature="0"
       id="zeppelin74"
       d="m 68.517753,464.35049 c 0,0 -1.494329,6.54658 -1.992438,6.54658 -0.49811,0 -14.658654,0.71158 -15.726031,-0.42695 -1.067378,-1.13854 -1.138537,-7.61396 -1.138537,-7.61396 0,0 0.426952,-0.99622 1.92128,-1.06738 1.494329,-0.0712 16.935726,2.56171 16.935726,2.56171 z"
       style="fill:#686868;fill-opacity:1;fill-rule:evenodd;stroke:#000000;stroke-width:0.22770724;stroke-linecap:butt;stroke-linejoin:miter;stroke-miterlimit:4;stroke-dasharray:none;stroke-opacity:1" />
    <path
       sodipodi:nodetypes="ccssccc"
       inkscape:connector-curvature="0"
       id="zeppelin94"
       d="m 17.302975,436.26346 c 0.9057,-0.95602 1.710767,-1.2076 2.314568,-0.9057 0.6038,0.3019 1.660449,1.10697 1.811399,2.51584 0.15095,1.40886 0.100636,3.14478 -0.578641,4.40271 -0.679276,1.25791 -1.408867,1.86171 -2.239092,1.91202 -0.830225,0.0503 -1.912034,-1.03149 -2.188776,-1.71076 -0.904209,-4.16824 -1.190638,-2.96906 0.880542,-6.21411 z"
       style="fill:url(#linearGradient6910);fill-opacity:1;fill-rule:evenodd;stroke:none;stroke-width:0;stroke-linecap:butt;stroke-linejoin:miter;stroke-miterlimit:4;stroke-dasharray:none;stroke-opacity:1" />
  </g>
  <g
     id="boot01"
     transform="matrix(1.8342016,0,0,1.614862,39.208938,-786.1375)">
    <path
       style="fill:#ffffff;fill-rule:evenodd;stroke:#000000;stroke-width:0.051;stroke-linecap:butt;stroke-linejoin:miter;stroke-miterlimit:4;stroke-dasharray:none;stroke-opacity:1"
       d="m 136.14114,531.34183 c 0,0 -1.21027,8.41428 -1.2679,9.65336 -0.0576,1.23909 -0.17289,2.24766 -0.17289,2.24766 l 3.37147,-0.48988 c 0,0 -1.38317,-1.38316 -1.84423,-3.68845 -0.46105,-2.30528 -0.0865,-7.72269 -0.0865,-7.72269 z"
       id="boot1-5"
       inkscape:connector-curvature="0" />
    <animateMotion
       dur="230s"
       values="100,0; -100,0; -300,15"
       repeatCount="indefinite" />
    <path
       style="fill:#ffffff;fill-rule:evenodd;stroke:#000000;stroke-width:0.1329888;stroke-linecap:butt;stroke-linejoin:miter;stroke-miterlimit:4;stroke-dasharray:none;stroke-opacity:1"
       d="m 138.16374,543.06076 -2.08644,-12.48933 c 0,0 1.23424,4.6137 2.05707,6.22997 0.82281,1.61626 2.76233,5.34838 2.76233,5.34838 l -2.87988,0.0882"
       id="boot1-1"
       inkscape:connector-curvature="0" />
    <path
       style="fill:#000000;fill-rule:evenodd;stroke:#000000;stroke-width:0;stroke-linecap:butt;stroke-linejoin:miter;stroke-miterlimit:4;stroke-dasharray:none;stroke-opacity:1"
       d="m 143.55903,543.30778 -0.0865,0.48987 -4.63937,0.40342 -3.25622,-0.14408 -0.80684,-0.74921 5.61912,-0.66277 0.66276,0.34579 2.04594,-0.20172 z"
       id="boot1-2"
       inkscape:connector-curvature="0" />
  </g>
  <g
     id="boot03"
     transform="matrix(2.9193636,0,0,2.9193636,-428.32499,-1483.9865)">
    <path
       inkscape:connector-curvature="0"
       id="path5321"
       d="m 210.875,532.875 2.51562,7.89062"
       style="fill:none;fill-rule:evenodd;stroke:#000000;stroke-width:0.1;stroke-linecap:butt;stroke-linejoin:miter;stroke-miterlimit:4;stroke-dasharray:none;stroke-opacity:1" />
    <animateMotion
       dur="65s"
       values="50,-13; 0,-8;-10,18; -45,42"
       repeatCount="indefinite" />
    <path
       inkscape:connector-curvature="0"
       id="path5323"
       d="m 214.38984,539.7096 c -0.71875,-0.4375 -3.01563,-5.60938 -3.23438,-6.1875 -0.21875,-0.57812 -0.21875,-0.60937 -0.21875,-0.60937 l 2.15625,6.81249 z"
       style="fill:#ffffff;fill-rule:evenodd;stroke:#000000;stroke-width:0.05;stroke-linecap:butt;stroke-linejoin:miter;stroke-miterlimit:4;stroke-dasharray:none;stroke-opacity:1" />
    <path
       inkscape:connector-curvature="0"
       id="path5325"
       d="m 211.76672,540.34912 c 0.88388,0.15468 2.36439,-0.17678 2.56326,-0.11048 0.19887,0.0663 0.32041,0.26516 0.32041,0.26516 l 0.82864,0.0773 c 0,0 0.17678,0.17678 0.13258,0.29831 -0.0442,0.12154 -0.23202,0.27621 -0.3867,0.34251 -0.15468,0.0663 -2.40858,0.17677 -2.75109,-0.0773 -0.3425,-0.25412 -0.7071,-0.7955 -0.7071,-0.7955 z"
       style="fill:#000000;fill-rule:evenodd;stroke:#000000;stroke-width:0;stroke-linecap:butt;stroke-linejoin:miter;stroke-miterlimit:4;stroke-dasharray:none;stroke-opacity:1" />
    <path
       sodipodi:nodetypes="ccscc"
       inkscape:connector-curvature="0"
       id="path5327"
       d="m 212.66369,540.2599 -0.48729,0.2321 c 0,0 -0.87714,-0.89746 -1.18578,-2.36748 -0.30861,-1.46999 -0.0488,-4.88968 -0.0488,-4.88968 0.081,2.79397 0.29299,4.70038 1.72179,7.02506 z"
       style="fill:#ffffff;fill-rule:evenodd;stroke:#000000;stroke-width:0.05073227;stroke-linecap:butt;stroke-linejoin:miter;stroke-miterlimit:4;stroke-dasharray:none;stroke-opacity:1" />
 </g>
 <g
     transform="matrix(1.8342016,0,0,1.614862,51.473747,-782.45806)"
     id="boot-06">
    <path
       inkscape:connector-curvature="0"
       id="path4179"
       d="m 136.14114,531.34183 c 0,0 -1.21027,8.41428 -1.2679,9.65336 -0.0576,1.23909 -0.17289,2.24766 -0.17289,2.24766 l 3.37147,-0.48988 c 0,0 -1.38317,-1.38316 -1.84423,-3.68845 -0.46105,-2.30528 -0.0865,-7.72269 -0.0865,-7.72269 z"
       style="fill:#ffffff;fill-rule:evenodd;stroke:#000000;stroke-width:0.051;stroke-linecap:butt;stroke-linejoin:miter;stroke-miterlimit:4;stroke-dasharray:none;stroke-opacity:1" />
    <animateMotion
       repeatCount="indefinite"
       values="-100,-1; -200,-5; -340,0; -340,50; 30,50; -100,-1"
       dur="233s" />
    <path
       inkscape:connector-curvature="0"
       id="path4181"
       d="m 138.16374,543.06076 -2.08644,-12.48933 c 0,0 1.23424,4.6137 2.05707,6.22997 0.82281,1.61626 2.76233,5.34838 2.76233,5.34838 l -2.87988,0.0882"
       style="fill:#ffffff;fill-rule:evenodd;stroke:#000000;stroke-width:0.1329888;stroke-linecap:butt;stroke-linejoin:miter;stroke-miterlimit:4;stroke-dasharray:none;stroke-opacity:1" />
    <path
       inkscape:connector-curvature="0"
       id="path4183"
       d="m 143.55903,543.30778 -0.0865,0.48987 -4.63937,0.40342 -3.25622,-0.14408 -0.80684,-0.74921 5.61912,-0.66277 0.66276,0.34579 2.04594,-0.20172 z"
       style="fill:#000000;fill-rule:evenodd;stroke:#000000;stroke-width:0;stroke-linecap:butt;stroke-linejoin:miter;stroke-miterlimit:4;stroke-dasharray:none;stroke-opacity:1" />
  </g>
  <g
     id="boot-07"
     transform="matrix(1.5161005,0,0,1.3348004,24.36697,-648.81105)">
    <path
       style="fill:#ffffff;fill-rule:evenodd;stroke:#000000;stroke-width:0.051;stroke-linecap:butt;stroke-linejoin:miter;stroke-miterlimit:4;stroke-dasharray:none;stroke-opacity:1"
       d="m 136.14114,531.34183 c 0,0 -1.21027,8.41428 -1.2679,9.65336 -0.0576,1.23909 -0.17289,2.24766 -0.17289,2.24766 l 3.37147,-0.48988 c 0,0 -1.38317,-1.38316 -1.84423,-3.68845 -0.46105,-2.30528 -0.0865,-7.72269 -0.0865,-7.72269 z"
       id="path4187"
       inkscape:connector-curvature="0" />
    <animateMotion
       dur="111s"
       values="-80,0; -160,9; -280,3"
       repeatCount="indefinite" />
    <path
       style="fill:#ffffff;fill-rule:evenodd;stroke:#000000;stroke-width:0.1329888;stroke-linecap:butt;stroke-linejoin:miter;stroke-miterlimit:4;stroke-dasharray:none;stroke-opacity:1"
       d="m 138.16374,543.06076 -2.08644,-12.48933 c 0,0 1.23424,4.6137 2.05707,6.22997 0.82281,1.61626 2.76233,5.34838 2.76233,5.34838 l -2.87988,0.0882"
       id="path4189"
       inkscape:connector-curvature="0" />
    <path
       style="fill:#000000;fill-rule:evenodd;stroke:#000000;stroke-width:0;stroke-linecap:butt;stroke-linejoin:miter;stroke-miterlimit:4;stroke-dasharray:none;stroke-opacity:1"
       d="m 143.55903,543.30778 -0.0865,0.48987 -4.63937,0.40342 -3.25622,-0.14408 -0.80684,-0.74921 5.61912,-0.66277 0.66276,0.34579 2.04594,-0.20172 z"
       id="path4191"
       inkscape:connector-curvature="0" />
  </g>
  <g
     transform="matrix(2.9193636,0,0,2.9193636,-206.94519,-1479.6938)"
     id="boot-04">
    <path
       style="fill:none;fill-rule:evenodd;stroke:#000000;stroke-width:0.1;stroke-linecap:butt;stroke-linejoin:miter;stroke-miterlimit:4;stroke-dasharray:none;stroke-opacity:1"
       d="m 210.875,532.875 2.51562,7.89062"
       id="path4169"
       inkscape:connector-curvature="0" />
    <animateMotion
       repeatCount="indefinite"
       values="20,-20; -45,42"
       dur="50s" />
    <path
       style="fill:#ffffff;fill-rule:evenodd;stroke:#000000;stroke-width:0.05;stroke-linecap:butt;stroke-linejoin:miter;stroke-miterlimit:4;stroke-dasharray:none;stroke-opacity:1"
       d="m 214.38984,539.7096 c -0.71875,-0.4375 -3.01563,-5.60938 -3.23438,-6.1875 -0.21875,-0.57812 -0.21875,-0.60937 -0.21875,-0.60937 l 2.15625,6.81249 z"
       id="path4171"
       inkscape:connector-curvature="0" />
    <path
       style="fill:#000000;fill-rule:evenodd;stroke:#000000;stroke-width:0;stroke-linecap:butt;stroke-linejoin:miter;stroke-miterlimit:4;stroke-dasharray:none;stroke-opacity:1"
       d="m 211.76672,540.34912 c 0.88388,0.15468 2.36439,-0.17678 2.56326,-0.11048 0.19887,0.0663 0.32041,0.26516 0.32041,0.26516 l 0.82864,0.0773 c 0,0 0.17678,0.17678 0.13258,0.29831 -0.0442,0.12154 -0.23202,0.27621 -0.3867,0.34251 -0.15468,0.0663 -2.40858,0.17677 -2.75109,-0.0773 -0.3425,-0.25412 -0.7071,-0.7955 -0.7071,-0.7955 z"
       id="path4173"
       inkscape:connector-curvature="0" />
    <path
       style="fill:#ffffff;fill-rule:evenodd;stroke:#000000;stroke-width:0.05073227;stroke-linecap:butt;stroke-linejoin:miter;stroke-miterlimit:4;stroke-dasharray:none;stroke-opacity:1"
       d="m 212.66369,540.2599 -0.48729,0.2321 c 0,0 -0.87714,-0.89746 -1.18578,-2.36748 -0.30861,-1.46999 -0.0488,-4.88968 -0.0488,-4.88968 0.081,2.79397 0.29299,4.70038 1.72179,7.02506 z"
       id="path4175"
       inkscape:connector-curvature="0"
       sodipodi:nodetypes="ccscc" />
  </g>
  <g
     id="boot11"
     transform="matrix(1.8342016,0,0,1.614862,39.208938,-786.1375)">
    <path
       style="fill:#ffffff;fill-rule:evenodd;stroke:#000000;stroke-width:0.051;stroke-linecap:butt;stroke-linejoin:miter;stroke-miterlimit:4;stroke-dasharray:none;stroke-opacity:1"
       d="m 136.14114,531.34183 c 0,0 -1.21027,8.41428 -1.2679,9.65336 -0.0576,1.23909 -0.17289,2.24766 -0.17289,2.24766 l 3.37147,-0.48988 c 0,0 -1.38317,-1.38316 -1.84423,-3.68845 -0.46105,-2.30528 -0.0865,-7.72269 -0.0865,-7.72269 z"
       id="boot11-5"
       inkscape:connector-curvature="0" />
    <animateMotion
       dur="200s"
       values="-200,10; -370,-6; -390,80; -100,30; -200,10"
       repeatCount="indefinite" />
    <path
       style="fill:#ffffff;fill-rule:evenodd;stroke:#000000;stroke-width:0.1329888;stroke-linecap:butt;stroke-linejoin:miter;stroke-miterlimit:4;stroke-dasharray:none;stroke-opacity:1"
       d="m 138.16374,543.06076 -2.08644,-12.48933 c 0,0 1.23424,4.6137 2.05707,6.22997 0.82281,1.61626 2.76233,5.34838 2.76233,5.34838 l -2.87988,0.0882"
       id="boot11-1"
       inkscape:connector-curvature="0" />
    <path
       style="fill:#000000;fill-rule:evenodd;stroke:#000000;stroke-width:0;stroke-linecap:butt;stroke-linejoin:miter;stroke-miterlimit:4;stroke-dasharray:none;stroke-opacity:1"
       d="m 143.55903,543.30778 -0.0865,0.48987 -4.63937,0.40342 -3.25622,-0.14408 -0.80684,-0.74921 5.61912,-0.66277 0.66276,0.34579 2.04594,-0.20172 z"
       id="boot11-2"
       inkscape:connector-curvature="0" />
  </g>
</svg>
